PathFileType	4	(X/Y/Z)	Patient4_TMGait_0pt5_01_left_13.trc.trc
DataRate	CameraRate	NumFrames	NumMarkers	Units	OrigDataRate	OrigDataStartFrame	OrigNumFrames
74.866310160428	74.866310160428	4	33	mm	74.866310160428	124	       141
Frame#	Time	L.ASIS			Sacral			L.Shoulder			Chest			R.Shoulder			Neck			R.ASIS			R.Thigh.Superior			R.Thigh.Lateral			R.Thigh.Inferior			R.Patella			L.Thigh.Superior			L.Thigh.Lateral			L.Thigh.Inferior			L.Patella			L.Shank.Superior			L.Shank.Lateral			L.Shank.Inferior			R.Shank.Superior			R.Shank.Lateral			R.Shank.Inferior			R.Heel			R.Midfoot.Superior			R.Midfoot.Lateral			R.Toe			L.Heel			L.Midfoot.Lateral			L.Midfoot.Superior			L.Toe			L.Elbow			L.Wrist			R.Elbow			R.Wrist			
		X1	Y1	Z1	X2	Y2	Z2	X3	Y3	Z3	X4	Y4	Z4	X5	Y5	Z5	X6	Y6	Z6	X7	Y7	Z7	X8	Y8	Z8	X9	Y9	Z9	X10	Y10	Z10	X11	Y11	Z11	X12	Y12	Z12	X13	Y13	Z13	X14	Y14	Z14	X15	Y15	Z15	X16	Y16	Z16	X17	Y17	Z17	X18	Y18	Z18	X19	Y19	Z19	X20	Y20	Z20	X21	Y21	Z21	X22	Y22	Z22	X23	Y23	Z23	X24	Y24	Z24	X25	Y25	Z25	X26	Y26	Z26	X27	Y27	Z27	X28	Y28	Z28	X29	Y29	Z29	X30	Y30	Z30	X31	Y31	Z31	X32	Y32	Z32	X33	Y33	Z33	

124	18.972928571429	763.623378014180	957.105242633758	359.044817781772	573.441110625948	999.261501245784	545.406264970097	703.175806381727	1436.031696382354	359.524236025574	835.141103348460	1358.904900106234	493.677767848414	786.438339417411	1423.985963085278	683.500588909016	733.619532146972	1489.555672426292	510.126834986073	810.555911222297	933.010956637844	630.432195902454	805.856751950692	721.383289476524	600.365524391290	703.947654895022	626.750062497473	664.685573813700	759.034752102787	562.332571232666	580.779169953524	738.120114097413	476.911139608123	583.103615753835	845.010659607666	769.850870001004	384.386539878716	787.625873794568	638.995900702874	316.543163156174	892.914648786715	581.218150506739	373.457556039873	918.046211629861	517.059284214482	373.724875783587	905.602851277171	445.065435665162	363.841839083719	845.319784536283	312.860274423598	312.871672894107	936.182349250872	217.890467812269	368.318884472663	699.203841409988	393.832107578741	588.988267385400	616.577200962450	298.609789384499	648.963200166012	643.445134389452	201.244115843352	582.005193964310	491.763921339923	44.737456491906	545.785953739521	663.221499264120	96.009523133350	585.936613399516	573.050252178958	36.064379886786	622.037256353132	781.669961442051	40.316114064868	617.200027199296	855.380020518905	40.585205713629	406.134951191199	930.720238708893	44.168842413054	327.044824194016	1002.402516738929	119.395384191678	348.247788955519	1135.594080551377	87.845581680796	324.887879897432	553.349851647419	1114.608788600524	264.083120880787	521.133948649966	856.691134989177	255.888708255910	964.466259248013	1135.273147340837	771.742633340166	1186.361631725755	1209.395416870672	675.383926822415	
125	18.986285714286	766.006118997085	955.595636808106	357.989788572129	575.004523104599	998.076457337247	543.470516002001	702.901757522934	1434.885104273402	357.907377858886	835.124421262063	1358.443501717408	492.157447106020	785.891399107526	1423.171186852401	681.960713289418	732.969243345189	1488.575576564879	508.548027437846	812.110713565167	932.085667370504	629.517648221722	806.292327090478	720.125424862097	600.088433541463	703.222922099458	626.231544396464	664.059571323526	758.133237310899	561.179347624635	580.496876698688	736.292222125274	475.702064917071	582.683192431462	846.866877971844	767.485479882610	383.779600444059	788.321807635445	636.483501575232	316.733984309310	893.677832979908	578.777128568114	373.677065945422	917.999063924249	513.729843373502	374.491661533681	904.719137801597	441.413500975516	364.908966771528	842.044816461542	310.006815371423	314.497608397247	931.065525682051	213.527306614961	370.370605438761	696.468792544320	393.019752641195	588.754253127925	612.643767468326	298.874446971992	648.960045958117	638.379715109265	201.051408559475	582.131406114829	485.208957130217	45.355104835430	546.133186662776	656.874963062498	96.038180559291	586.220397287682	566.537525679419	36.152401428309	622.189209711211	775.180737918181	39.819452154848	617.311807993815	845.969844114737	38.886513463010	407.911028820093	921.518847067400	41.025740846350	328.867155560425	995.581643405884	113.577227267645	351.121949147630	1127.973979520578	77.846220338333	327.597208612813	553.281682484474	1113.414321573644	262.897456376577	522.311554837067	855.162387547155	255.103131187729	966.186543495262	1135.727454529996	768.970530778784	1185.990790541612	1214.131551605132	671.572275956152	
126	18.999642857143	768.370050168467	954.289449364114	356.812343678591	576.549432385793	997.086060368611	541.356853814007	702.926826217924	1433.828588400684	356.155368530031	835.313209629071	1358.022950296659	490.579526124912	785.513431253014	1422.466455198520	680.336642521305	732.572879102902	1487.712572977384	506.824655055922	813.615904740092	931.157388862703	628.449367700466	806.768663240464	718.917836623482	599.629701696618	702.617367721716	625.766820964074	663.257179777471	757.411140699581	560.077875534482	580.047878398979	734.664413099996	474.530465024023	582.126670364367	848.540810840016	765.240019762641	383.307571054302	789.222920774591	634.389504382485	316.627957754486	894.329525423162	576.606545983587	374.082684346688	917.880703353566	510.713144440483	375.282787432139	903.863929308248	438.171117280536	365.820629656214	839.148659436250	307.560268061873	315.754616566433	926.253386694655	209.702098122742	372.215457408213	693.913508519254	392.247970666756	588.432166360465	608.843180449066	299.257708611025	648.906966010046	633.423867291517	200.949078846642	582.266149623406	478.694664450641	46.177550386602	546.552954877414	650.608760017111	96.123011892162	586.558625008937	560.066820286788	36.318543908035	622.385727755840	768.724463219385	39.335379060888	617.419293498854	837.072440728247	37.602600576391	409.279153293355	912.923712853578	38.514404707389	330.412820640157	989.104721246015	108.495913911272	353.878860758450	1120.730666792807	68.909548655983	330.410550426789	554.016821634737	1112.014750725852	261.451896887983	524.524673898896	853.370808810490	254.095325287247	967.369350582468	1135.798949469206	766.457478827292	1185.608158662388	1217.453496037360	668.299358741006	
127	19.013000000000	770.623118088713	953.265127856052	355.471241853969	578.033653624964	996.339969338283	539.079778603542	703.276369700951	1432.920843640427	354.281708582989	835.729055214065	1357.661950763510	488.940231789158	785.364439843480	1421.905325851184	678.626453834759	732.481315558188	1487.007206408781	504.968393443476	815.020337701341	930.270184626892	627.181032082125	807.228808333461	717.808528368170	598.916670341490	702.115755727758	625.387396669147	662.249284839190	756.843084443074	559.067598855928	579.396022698498	733.224975471931	473.420176531009	581.417200576708	850.067913200524	763.321895427878	382.928744274001	790.428999989063	632.853651466281	316.205499524280	894.986508886071	574.885330278599	374.609443477632	917.812105700100	508.166597584417	376.017853778176	903.151286809399	435.470885259695	366.521578197867	836.754442795429	305.660291895448	316.564799265133	921.839669100875	206.559401347644	373.771574840254	691.523527911454	391.547466268042	588.007423624739	605.168612355598	299.793768293737	648.787829556375	628.573603184920	200.970496397255	582.406630593332	472.216607185596	47.261199060883	547.045938389962	644.425971941963	96.280944495689	586.958166319902	553.627356950440	36.595765179591	622.628891225100	762.283129437192	38.873410482136	617.518605978734	828.855897780045	36.783764812867	410.241338989204	905.055353687104	36.701370886199	331.636021910044	983.028758123997	104.341080516405	356.355728954762	1113.949339712438	61.370809085364	333.093031647364	555.569219708958	1110.490170845812	259.729815912989	527.813234313930	851.404759074762	252.828516912945	968.010844480282	1135.478637273830	764.219038911095	1185.305940986035	1219.266053805251	665.628863884913	
